#!OML:ASF G:\JayActor3\Patient Classification 1\Patient 1\Session 5\male.ASF
:FULLY-SPECIFIED
:DEGREES
672
root 30.8043 16.0692 -5.62743 111.709 87.4435 90.5515
lowerback 25.7617 -1.03277 0.120321
upperback 6.92122 -0.840741 -1.232
thorax -6.64105 -0.171547 -1.1893
lowerneck 3.92357 -1.26888 0.321048
upperneck -11.2405 -1.33134 2.33811
head -4.3864 -0.73936 0.793092
rclavicle -5.89225e-015 -1.11202e-014
rhumerus -34.0991 -1.01871 -87.9977
rradius 30.4222
rwrist -1.02274
rhand -21.377 -7.79175
rfingers 7.12502
rthumb 5.01034 -37.7125
lclavicle -5.89225e-015 -1.11202e-014
lhumerus -35.1775 0.193155 86.0748
lradius 25.8829
lwrist 20.9113
lhand -18.4982 9.20365
lfingers 7.12502
lthumb 7.78948 39.0402
rfemur -62.2873 -0.000689765 16.7199
rtibia 59.7215
rfoot -22.1592 -8.08638
rtoes -9.75607
lfemur -32.1999 3.04853 -30.5882
ltibia 37.6572
lfoot -21.656 3.00313
ltoes 3.20814
673
root 30.949 16.0778 -5.61864 113.414 87.3093 92.32
lowerback 25.7405 -1.07697 0.0541176
upperback 6.94628 -0.912595 -1.2599
thorax -6.60365 -0.2038 -1.16004
lowerneck 3.9129 -1.26666 0.317565
upperneck -11.2432 -1.32982 2.32636
head -4.38527 -0.737767 0.789575
rclavicle 1.40392e-014 9.38636e-015
rhumerus -34.1586 -1.01639 -87.9864
rradius 30.3577
rwrist -0.907891
rhand -21.4266 -7.77172
rfingers 7.12502
rthumb 4.96246 -37.6936
lclavicle 1.40392e-014 9.38636e-015
lhumerus -35.1902 0.216092 86.0463
lradius 25.8296
lwrist 20.8753
lhand -18.5094 9.20327
lfingers 7.12502
lthumb 7.77866 39.0402
rfemur -62.6641 -0.000518419 16.6496
rtibia 57.4484
rfoot -22.2118 -8.64193
rtoes -9.72583
lfemur -31.0188 3.06104 -30.6335
ltibia 36.7037
lfoot -21.7722 3.02213
ltoes 3.08861
674
root 31.0946 16.085 -5.60932 115.127 87.1662 94.0904
lowerback 25.7109 -1.12303 -0.0142358
upperback 6.96973 -0.987395 -1.28647
thorax -6.56371 -0.237592 -1.12726
lowerneck 3.90677 -1.26479 0.315417
upperneck -11.2496 -1.3289 2.31122
head -4.38644 -0.736411 0.78481
rclavicle 3.70858e-015 -5.10007e-015
rhumerus -34.2134 -1.00807 -87.9736
rradius 30.29
rwrist -0.806416
rhand -21.4423 -7.74716
rfingers 7.12502
rthumb 4.94728 -37.6694
lclavicle 3.70858e-015 -5.10007e-015
lhumerus -35.2103 0.236241 86.0273
lradius 25.7862
lwrist 20.8579
lhand -18.5244 9.20669
lfingers 7.12502
lthumb 7.7642 39.0441
rfemur -62.9605 0.012418 16.5525
rtibia 55.0768
rfoot -22.2487 -9.21628
rtoes -9.8142
lfemur -29.8139 3.08148 -30.6839
ltibia 35.7012
lfoot -21.8785 3.02532
ltoes 3.02204
675
root 31.2411 16.0904 -5.59933 116.786 87.0121 95.8056
lowerback 25.6798 -1.16927 -0.0887068
upperback 6.99137 -1.06391 -1.31204
thorax -6.52479 -0.27226 -1.08944
lowerneck 3.90465 -1.26518 0.309099
upperneck -11.2606 -1.33083 2.29967
head -4.38997 -0.736493 0.782237
rclavicle -5.55355e-015 3.27373e-015
rhumerus -34.2644 -1.00548 -87.9537
rradius 30.2227
rwrist -0.713559
rhand -21.426 -7.71911
rfingers 7.12502
rthumb 4.96306 -37.641
lclavicle -5.55355e-015 3.27373e-015
lhumerus -35.2308 0.258228 86.018
lradius 25.7474
lwrist 20.8472
lhand -18.5457 9.21284
lfingers 7.12502
lthumb 7.74364 39.051
rfemur -63.1892 0.0509352 16.4103
rtibia 52.6778
rfoot -22.3334 -9.71965
rtoes -9.74895
lfemur -28.6342 3.10788 -30.7411
ltibia 34.7559
lfoot -22.0197 3.02219
ltoes 2.98156
676
root 31.3889 16.0938 -5.58858 118.384 86.8479 97.4628
lowerback 25.6552 -1.21504 -0.169792
upperback 7.01082 -1.14131 -1.33607
thorax -6.49126 -0.307349 -1.04594
lowerneck 3.90947 -1.26822 0.302333
upperneck -11.2787 -1.33575 2.29166
head -4.39746 -0.738259 0.781246
rclavicle 1.56543e-015 -9.7156e-015
rhumerus -34.3176 -1.01235 -87.9256
rradius 30.1606
rwrist -0.633328
rhand -21.3744 -7.68775
rfingers 7.12502
rthumb 5.01287 -37.6085
lclavicle 1.56543e-015 -9.7156e-015
lhumerus -35.2592 0.276544 86.0206
lradius 25.7193
lwrist 20.8392
lhand -18.5664 9.22513
lfingers 7.12502
lthumb 7.72364 39.0641
rfemur -63.3253 0.126277 16.2109
rtibia 50.221
rfoot -22.4339 -10.1861
rtoes -9.58301
lfemur -27.4287 3.13891 -30.8019
ltibia 33.7777
lfoot -22.1488 3.01833
ltoes 2.94004
677
root 31.538 16.0956 -5.57712 119.942 86.6772 99.0897
lowerback 25.6415 -1.26161 -0.254879
upperback 7.03047 -1.22021 -1.35774
thorax -6.4626 -0.34304 -0.997134
lowerneck 3.91294 -1.27368 0.29438
upperneck -11.2965 -1.34368 2.28706
head -4.40451 -0.741621 0.78175
rclavicle 2.19906e-014 3.00413e-014
rhumerus -34.3728 -1.02584 -87.8917
rradius 30.1035
rwrist -0.565423
rhand -21.319 -7.64983
rfingers 7.12502
rthumb 5.06629 -37.5693
lclavicle 2.19906e-014 3.00413e-014
lhumerus -35.2958 0.295988 86.0328
lradius 25.7053
lwrist 20.8236
lhand -18.5846 9.23301
lfingers 7.12502
lthumb 7.70607 39.0726
rfemur -63.3644 0.252578 15.9393
rtibia 47.7314
rfoot -22.552 -10.6487
rtoes -9.36123
lfemur -26.1904 3.1735 -30.8604
ltibia 32.7658
lfoot -22.2637 3.01758
ltoes 2.8752
678
root 31.6888 16.0956 -5.56477 121.403 86.4913 100.633
lowerback 25.6393 -1.30604 -0.351455
upperback 7.05306 -1.29862 -1.38014
thorax -6.43589 -0.378181 -0.942691
lowerneck 3.9206 -1.28337 0.292002
upperneck -11.3224 -1.35637 2.28444
head -4.41529 -0.747693 0.782316
rclavicle -1.52443e-014 -2.71217e-014
rhumerus -34.4306 -1.05155 -87.8524
rradius 30.0531
rwrist -0.512852
rhand -21.2663 -7.61485
rfingers 7.12502
rthumb 5.11724 -37.5331
lclavicle -1.52443e-014 -2.71217e-014
lhumerus -35.3419 0.295754 86.06
lradius 25.7107
lwrist 20.8081
lhand -18.5953 9.25174
lfingers 7.12502
lthumb 7.69574 39.0917
rfemur -63.3085 0.440058 15.567
rtibia 45.2418
rfoot -22.7101 -11.1103
rtoes -9.05255
lfemur -24.9115 3.20518 -30.9234
ltibia 31.7194
lfoot -22.3631 3.02693
ltoes 2.76584
679
root 31.8416 16.094 -5.55146 122.859 86.2916 102.188
lowerback 25.6506 -1.35123 -0.455973
upperback 7.07751 -1.37933 -1.40146
thorax -6.4134 -0.414146 -0.881791
lowerneck 3.93048 -1.29581 0.294138
upperneck -11.3494 -1.37234 2.28219
head -4.42695 -0.75562 0.782409
rclavicle -2.24875e-015 3.5657e-015
rhumerus -34.4935 -1.09519 -87.8058
rradius 30.0065
rwrist -0.464342
rhand -21.2282 -7.57707
rfingers 7.12502
rthumb 5.15398 -37.4944
lclavicle -2.24875e-015 3.5657e-015
lhumerus -35.3927 0.283908 86.0999
lradius 25.7249
lwrist 20.7881
lhand -18.6045 9.25963
lfingers 7.12502
lthumb 7.68694 39.0999
rfemur -63.1709 0.687495 15.0925
rtibia 42.7902
rfoot -22.8907 -11.6344
rtoes -8.86521
lfemur -23.5911 3.22812 -30.9853
ltibia 30.6415
lfoot -22.4473 3.05607
ltoes 2.56798
680
root 31.9964 16.0901 -5.53705 124.297 86.0795 103.739
lowerback 25.6734 -1.39477 -0.565165
upperback 7.10567 -1.45834 -1.42237
thorax -6.39209 -0.448985 -0.818238
lowerneck 3.94454 -1.31215 0.299764
upperneck -11.3789 -1.39261 2.28538
head -4.44029 -0.766123 0.78402
rclavicle 1.77664e-015 1.61637e-014
rhumerus -34.5581 -1.16286 -87.7529
rradius 29.9609
rwrist -0.416668
rhand -21.2119 -7.54581
rfingers 7.12502
rthumb 5.16972 -37.4628
lclavicle 1.77664e-015 1.61637e-014
lhumerus -35.4514 0.240056 86.1561
lradius 25.7539
lwrist 20.7816
lhand -18.6107 9.25597
lfingers 7.12502
lthumb 7.68096 39.0965
rfemur -62.9665 0.992438 14.5188
rtibia 40.4221
rfoot -23.1012 -12.2073
rtoes -8.78146
lfemur -22.2338 3.23957 -31.0429
ltibia 29.5416
lfoot -22.5163 3.10201
ltoes 2.29965
681
root 32.1535 16.0832 -5.52153 125.73 85.8528 105.298
lowerback 25.7002 -1.43649 -0.675694
upperback 7.1381 -1.53462 -1.44271
thorax -6.36767 -0.482292 -0.75413
lowerneck 3.95982 -1.33205 0.302888
upperneck -11.4064 -1.41708 2.29648
head -4.45305 -0.779001 0.788958
rclavicle -5.71506e-015 7.58488e-015
rhumerus -34.6208 -1.25948 -87.6901
rradius 29.9097
rwrist -0.36371
rhand -21.2155 -7.524
rfingers 7.12502
rthumb 5.16625 -37.441
lclavicle -5.71506e-015 7.58488e-015
lhumerus -35.503 0.178496 86.2236
lradius 25.777
lwrist 20.777
lhand -18.6094 9.23814
lfingers 7.12502
lthumb 7.68221 39.0786
rfemur -62.7142 1.33729 13.8628
rtibia 38.1868
rfoot -23.3277 -12.8112
rtoes -8.82619
lfemur -20.8503 3.23447 -31.0965
ltibia 28.4351
lfoot -22.5763 3.16109
ltoes 1.97727
682
root 32.3129 16.073 -5.50508 127.234 85.6178 106.937
lowerback 25.7271 -1.48064 -0.777732
upperback 7.17347 -1.6111 -1.45913
thorax -6.33994 -0.515643 -0.690589
lowerneck 3.97548 -1.35109 0.303895
upperneck -11.426 -1.4408 2.30822
head -4.463 -0.791477 0.794374
rclavicle -3.12651e-014 -1.51822e-014
rhumerus -34.6815 -1.36769 -87.6216
rradius 29.8495
rwrist -0.309304
rhand -21.2485 -7.50827
rfingers 7.12502
rthumb 5.13438 -37.4261
lclavicle -3.12651e-014 -1.51822e-014
lhumerus -35.5567 0.10332 86.3022
lradius 25.8011
lwrist 20.7886
lhand -18.6059 9.19581
lfingers 7.12502
lthumb 7.68556 39.0362
rfemur -62.4318 1.70685 13.154
rtibia 36.1347
rfoot -23.5527 -13.4111
rtoes -8.95722
lfemur -19.4535 3.21168 -31.1379
ltibia 27.3423
lfoot -22.6363 3.23375
ltoes 1.60678
683
root 32.4749 16.0588 -5.48787 128.84 85.3758 108.685
lowerback 25.7459 -1.52973 -0.864126
upperback 7.21345 -1.68899 -1.47052
thorax -6.30314 -0.549722 -0.63024
lowerneck 3.98958 -1.37003 0.302494
upperneck -11.4373 -1.46512 2.31806
head -4.4696 -0.804063 0.799489
rclavicle 2.8243e-014 2.31227e-014
rhumerus -34.7328 -1.48376 -87.5481
rradius 29.7752
rwrist -0.246643
rhand -21.3075 -7.49938
rfingers 7.12502
rthumb 5.07743 -37.4185
lclavicle 2.8243e-014 2.31227e-014
lhumerus -35.5983 0.0389087 86.3816
lradius 25.8133
lwrist 20.7997
lhand -18.591 9.1401
lfingers 7.12502
lthumb 7.6999 38.9799
rfemur -62.1363 2.08099 12.4233
rtibia 34.3119
rfoot -23.7644 -13.9492
rtoes -9.06071
lfemur -18.0587 3.17306 -31.1643
ltibia 26.2835
lfoot -22.7025 3.31784
ltoes 1.19327
